<?xml version="1.0" standalone="no"?>
<!DOCTYPE svg PUBLIC "-//W3C//DTD SVG 20010904//EN"
 "http://www.w3.org/TR/2001/REC-SVG-20010904/DTD/svg10.dtd">
<svg version="1.0" xmlns="http://www.w3.org/2000/svg"
 width="967.000000pt" height="967.000000pt" viewBox="0 0 967.000000 967.000000"
 preserveAspectRatio="xMidYMid meet">
<metadata>
Created by potrace 1.14, written by Peter Selinger 2001-2017
</metadata>
<g transform="translate(0.000000,967.000000) scale(0.100000,-0.100000)"
fill="#000000" stroke="none">
<path d="M6445 8664 c-42 -4 -122 -18 -215 -36 -142 -28 -360 -118 -500 -207
-278 -176 -518 -487 -601 -781 -70 -243 -76 -510 -19 -725 6 -22 15 -57 21
-78 5 -21 13 -45 18 -55 5 -9 13 -28 18 -42 33 -84 144 -280 180 -318 31 -32
37 -60 36 -172 -2 -182 -56 -341 -163 -475 -85 -107 -91 -81 51 -216 181 -174
160 -166 234 -87 126 133 228 320 275 506 6 23 15 42 20 42 5 0 51 -20 102
-44 113 -54 226 -96 256 -96 34 0 36 -22 12 -97 -70 -214 -237 -482 -393 -632
l-35 -33 91 -87 c51 -47 118 -110 150 -140 l58 -55 65 65 c231 227 422 559
503 875 l11 41 117 12 c65 7 165 24 222 37 57 14 105 23 108 20 7 -6 -24 -154
-54 -256 -106 -370 -327 -751 -583 -1005 -38 -38 -70 -74 -70 -80 0 -9 215
-217 267 -258 23 -18 24 -18 51 5 26 22 134 136 197 208 17 19 60 74 96 121
302 397 492 871 539 1344 18 186 12 175 73 119 105 -96 197 -186 197 -193 0
-4 -20 -27 -45 -51 -25 -24 -45 -49 -45 -55 0 -7 19 -29 43 -49 23 -21 78 -73
122 -115 44 -42 145 -137 225 -211 79 -74 183 -171 230 -216 47 -44 123 -116
170 -160 46 -43 120 -113 165 -155 79 -75 102 -97 218 -205 67 -63 111 -87
188 -104 88 -20 175 4 257 68 55 44 85 92 100 163 24 105 -13 194 -119 294
-30 28 -173 163 -319 300 -146 137 -337 317 -425 399 -88 83 -198 187 -245
232 -149 141 -175 164 -185 164 -6 0 -31 -20 -55 -45 -24 -25 -48 -45 -52 -45
-5 0 -62 51 -128 113 -111 104 -135 137 -110 152 10 6 130 172 130 179 0 2 15
31 33 63 19 33 46 93 62 134 15 40 31 83 35 94 14 36 38 138 50 210 13 78 8
359 -8 440 -21 109 -72 267 -111 345 -75 148 -168 277 -282 390 -95 94 -123
117 -224 185 -195 129 -377 199 -640 246 -64 11 -304 20 -370 13z m381 -313
c441 -95 788 -394 905 -781 44 -144 50 -181 50 -322 0 -201 -23 -303 -110
-478 -63 -129 -89 -167 -161 -243 -25 -27 -46 -52 -48 -57 -12 -32 -274 -217
-332 -235 -14 -4 -34 -13 -45 -19 -11 -7 -45 -21 -75 -31 -30 -10 -62 -20 -70
-23 -8 -3 -24 -5 -35 -6 -11 -1 -25 -4 -30 -8 -6 -4 -29 -9 -50 -11 -22 -3
-51 -8 -65 -11 -42 -10 -293 -13 -335 -4 -22 5 -53 11 -70 12 -89 10 -261 68
-365 124 -207 111 -413 320 -500 509 -82 180 -113 313 -111 485 1 115 32 298
59 356 5 9 25 51 45 93 21 41 37 80 37 86 0 6 4 13 8 15 4 2 34 39 67 83 32
44 89 110 127 147 73 71 219 174 296 209 26 12 65 30 86 40 22 11 46 19 53 19
7 0 21 4 31 9 18 10 108 35 177 50 22 5 115 9 206 10 128 1 185 -3 255 -18z"/>
<path d="M6390 8200 c-19 -4 -70 -16 -112 -25 -43 -10 -78 -21 -78 -26 0 -5
25 -9 55 -9 96 0 264 -29 391 -68 67 -21 235 -109 333 -175 259 -176 445 -430
516 -702 21 -80 38 -229 33 -283 -5 -47 -4 -49 13 -33 10 9 28 62 43 123 29
118 35 277 15 365 -21 92 -64 219 -95 279 -80 157 -252 337 -393 412 -148 78
-241 113 -351 134 -74 13 -326 19 -370 8z"/>
<path d="M2304 8138 c-413 -426 -670 -957 -750 -1548 -20 -151 -23 -500 -5
-640 70 -544 278 -1021 623 -1433 78 -92 227 -247 238 -247 10 0 284 256 288
269 2 6 -29 43 -68 83 -332 339 -551 768 -637 1248 -23 126 -26 174 -27 370
-1 237 7 320 50 516 88 400 300 796 596 1110 49 52 88 97 88 102 0 10 -278
272 -289 272 -4 0 -53 -46 -107 -102z"/>
<path d="M2934 7588 c-335 -349 -520 -782 -541 -1263 -16 -388 99 -798 314
-1121 62 -93 187 -245 262 -318 l50 -49 118 109 c65 61 132 123 150 139 l32
28 -72 77 c-195 207 -337 474 -399 750 -20 92 -23 131 -23 315 0 229 9 294 67
470 71 218 231 480 382 624 42 41 44 53 12 78 -13 11 -76 68 -140 128 -64 61
-121 111 -125 113 -4 1 -43 -35 -87 -80z"/>
<path d="M3613 7102 c-22 -15 -123 -135 -166 -199 -66 -98 -132 -242 -162
-358 -36 -133 -45 -346 -21 -481 39 -228 144 -437 299 -601 l59 -62 144 136
c79 75 144 139 144 143 0 4 -22 35 -50 69 -176 219 -228 487 -145 748 29 93
95 209 159 279 l46 52 -148 140 c-82 77 -153 137 -159 134z"/>
<path d="M4457 6649 c-116 -17 -242 -102 -301 -204 -104 -176 -48 -400 127
-511 l37 -24 -2 -1238 -3 -1237 -1555 -5 -1555 -5 -67 -32 c-79 -37 -157 -107
-194 -172 -55 -98 -55 -102 -52 -823 l3 -663 33 -68 c60 -121 171 -208 300
-236 39 -8 934 -11 3305 -11 3584 0 3303 -5 3428 61 73 39 134 105 173 189
l31 65 3 655 c2 461 0 673 -8 714 -24 121 -113 230 -238 289 l-67 32 -1555 5
-1555 5 -3 1236 -2 1237 54 41 c132 99 192 256 151 397 -60 211 -263 337 -488
303z m-2337 -3848 c119 -45 220 -155 256 -276 49 -171 -46 -371 -218 -454
-228 -111 -489 -19 -597 209 -21 46 -26 69 -26 145 0 85 2 96 37 167 56 112
149 189 268 223 74 20 207 14 280 -14z m2081 -196 c90 -46 129 -131 104 -227
-38 -147 -240 -201 -353 -95 -57 53 -78 150 -48 220 18 43 75 95 122 113 48
17 129 12 175 -11z m1078 -4 c48 -25 85 -72 100 -127 40 -149 -113 -284 -269
-238 -148 44 -198 205 -98 319 66 75 174 93 267 46z m1068 1 c68 -36 113 -104
113 -175 0 -49 -45 -131 -88 -161 -108 -74 -266 -37 -321 77 -85 175 116 351
296 259z m1040 12 c117 -39 173 -161 124 -270 -65 -142 -283 -158 -373 -27
-73 106 -35 233 87 289 59 28 97 30 162 8z"/>
</g>
</svg>
